<svg xmlns="http://www.w3.org/2000/svg" viewBox="0 0 640 500" width="640" height="500" role="img" font-family="Inter, 'Source Sans 3', 'Helvetica Neue', Helvetica, system-ui, sans-serif">
<line x1="320.0" y1="70" x2="158.0" y2="349.0" stroke="#2a2a30" stroke-width="1.8" stroke-linecap="round"/>
<line x1="320.0" y1="70" x2="482.0" y2="349.0" stroke="#2a2a30" stroke-width="1.8" stroke-linecap="round"/>
<line x1="158.0" y1="349.0" x2="482.0" y2="349.0" stroke="#2a2a30" stroke-width="1.8" stroke-linecap="round"/>
<line x1="320.0" y1="70" x2="320.0" y2="217.6" stroke="#5c5c66" stroke-width="1.0" stroke-dasharray="4 3" opacity="0.7"/>
<line x1="158.0" y1="349.0" x2="320.0" y2="217.6" stroke="#5c5c66" stroke-width="1.0" stroke-dasharray="4 3" opacity="0.7"/>
<line x1="482.0" y1="349.0" x2="320.0" y2="217.6" stroke="#5c5c66" stroke-width="1.0" stroke-dasharray="4 3" opacity="0.7"/>
<circle cx="320.0" cy="70" r="26" fill="#fafaf7" stroke="none"/>
<line x1="320.0" y1="48" x2="300.2" y2="82.1" stroke="#8a7423" stroke-width="0.9" opacity="1.0"/>
<line x1="320.0" y1="48" x2="339.8" y2="82.1" stroke="#8a7423" stroke-width="0.9" opacity="1.0"/>
<line x1="300.2" y1="82.1" x2="339.8" y2="82.1" stroke="#8a7423" stroke-width="0.9" opacity="1.0"/>
<line x1="320.0" y1="48" x2="320.0" y2="66.04" stroke="#8a7423" stroke-width="0.6" stroke-dasharray="2 2" opacity="0.6"/>
<line x1="300.2" y1="82.1" x2="320.0" y2="66.04" stroke="#8a7423" stroke-width="0.6" stroke-dasharray="2 2" opacity="0.6"/>
<line x1="339.8" y1="82.1" x2="320.0" y2="66.04" stroke="#8a7423" stroke-width="0.6" stroke-dasharray="2 2" opacity="0.6"/>
<circle cx="320.0" cy="48" r="2" fill="#8a7423" opacity="1.0"/>
<circle cx="300.2" cy="82.1" r="2" fill="#8a7423" opacity="1.0"/>
<circle cx="339.8" cy="82.1" r="2" fill="#8a7423" opacity="1.0"/>
<circle cx="320.0" cy="66.04" r="2" fill="#8a7423" opacity="1.0"/>
<text x="320.0" y="30" font-size="12" fill="#8a7423" text-anchor="middle" font-weight="600">A · Architecture</text>
<text x="320.0" y="44" font-size="10" fill="#5c5c66" text-anchor="middle" font-weight="500">Inner A</text>
<circle cx="158.0" cy="349.0" r="26" fill="#fafaf7" stroke="none"/>
<line x1="158.0" y1="327.0" x2="138.2" y2="361.1" stroke="#3a6fb0" stroke-width="0.9" opacity="1.0"/>
<line x1="158.0" y1="327.0" x2="177.8" y2="361.1" stroke="#3a6fb0" stroke-width="0.9" opacity="1.0"/>
<line x1="138.2" y1="361.1" x2="177.8" y2="361.1" stroke="#3a6fb0" stroke-width="0.9" opacity="1.0"/>
<line x1="158.0" y1="327.0" x2="158.0" y2="345.04" stroke="#3a6fb0" stroke-width="0.6" stroke-dasharray="2 2" opacity="0.6"/>
<line x1="138.2" y1="361.1" x2="158.0" y2="345.04" stroke="#3a6fb0" stroke-width="0.6" stroke-dasharray="2 2" opacity="0.6"/>
<line x1="177.8" y1="361.1" x2="158.0" y2="345.04" stroke="#3a6fb0" stroke-width="0.6" stroke-dasharray="2 2" opacity="0.6"/>
<circle cx="158.0" cy="327.0" r="2" fill="#3a6fb0" opacity="1.0"/>
<circle cx="138.2" cy="361.1" r="2" fill="#3a6fb0" opacity="1.0"/>
<circle cx="177.8" cy="361.1" r="2" fill="#3a6fb0" opacity="1.0"/>
<circle cx="158.0" cy="345.04" r="2" fill="#3a6fb0" opacity="1.0"/>
<text x="150.0" y="395.0" font-size="12" fill="#3a6fb0" text-anchor="end" font-weight="600">C · Connection</text>
<text x="150.0" y="409.0" font-size="10" fill="#5c5c66" text-anchor="end" font-weight="500">Inner C</text>
<circle cx="482.0" cy="349.0" r="26" fill="#fafaf7" stroke="none"/>
<line x1="482.0" y1="327.0" x2="462.2" y2="361.1" stroke="#b06a3a" stroke-width="0.9" opacity="1.0"/>
<line x1="482.0" y1="327.0" x2="501.8" y2="361.1" stroke="#b06a3a" stroke-width="0.9" opacity="1.0"/>
<line x1="462.2" y1="361.1" x2="501.8" y2="361.1" stroke="#b06a3a" stroke-width="0.9" opacity="1.0"/>
<line x1="482.0" y1="327.0" x2="482.0" y2="345.04" stroke="#b06a3a" stroke-width="0.6" stroke-dasharray="2 2" opacity="0.6"/>
<line x1="462.2" y1="361.1" x2="482.0" y2="345.04" stroke="#b06a3a" stroke-width="0.6" stroke-dasharray="2 2" opacity="0.6"/>
<line x1="501.8" y1="361.1" x2="482.0" y2="345.04" stroke="#b06a3a" stroke-width="0.6" stroke-dasharray="2 2" opacity="0.6"/>
<circle cx="482.0" cy="327.0" r="2" fill="#b06a3a" opacity="1.0"/>
<circle cx="462.2" cy="361.1" r="2" fill="#b06a3a" opacity="1.0"/>
<circle cx="501.8" cy="361.1" r="2" fill="#b06a3a" opacity="1.0"/>
<circle cx="482.0" cy="345.04" r="2" fill="#b06a3a" opacity="1.0"/>
<text x="490.0" y="395.0" font-size="12" fill="#b06a3a" text-anchor="start" font-weight="600">D · Differentiation</text>
<text x="490.0" y="409.0" font-size="10" fill="#5c5c66" text-anchor="start" font-weight="500">Inner B</text>
<circle cx="320.0" cy="217.6" r="26" fill="#fafaf7" stroke="none"/>
<line x1="320.0" y1="195.6" x2="300.2" y2="229.7" stroke="#4a8a3a" stroke-width="0.9" opacity="1.0"/>
<line x1="320.0" y1="195.6" x2="339.8" y2="229.7" stroke="#4a8a3a" stroke-width="0.9" opacity="1.0"/>
<line x1="300.2" y1="229.7" x2="339.8" y2="229.7" stroke="#4a8a3a" stroke-width="0.9" opacity="1.0"/>
<line x1="320.0" y1="195.6" x2="320.0" y2="213.64" stroke="#4a8a3a" stroke-width="0.6" stroke-dasharray="2 2" opacity="0.6"/>
<line x1="300.2" y1="229.7" x2="320.0" y2="213.64" stroke="#4a8a3a" stroke-width="0.6" stroke-dasharray="2 2" opacity="0.6"/>
<line x1="339.8" y1="229.7" x2="320.0" y2="213.64" stroke="#4a8a3a" stroke-width="0.6" stroke-dasharray="2 2" opacity="0.6"/>
<circle cx="320.0" cy="195.6" r="2" fill="#4a8a3a" opacity="1.0"/>
<circle cx="300.2" cy="229.7" r="2" fill="#4a8a3a" opacity="1.0"/>
<circle cx="339.8" cy="229.7" r="2" fill="#4a8a3a" opacity="1.0"/>
<circle cx="320.0" cy="213.64" r="2" fill="#4a8a3a" opacity="1.0"/>
<text x="284.0" y="211.6" font-size="12" fill="#4a8a3a" text-anchor="end" font-weight="600">B · Boundaries</text>
<text x="284.0" y="225.6" font-size="10" fill="#5c5c66" text-anchor="end" font-weight="500">Outer Membrane</text>
<circle cx="320.0" cy="278.4" r="5" fill="#7a5a3a" stroke="#2a2a30" stroke-width="0.8"/>
<text x="332.0" y="282.4" font-size="12" fill="#7a5a3a" text-anchor="start" font-weight="500" font-style="italic">1</text>
<text x="320.0" y="298.4" font-size="10" fill="#7a5a3a" text-anchor="middle" font-weight="400" font-family="Garamond, 'EB Garamond', Georgia, serif" font-style="italic">somatic ground</text>
<text x="320.0" y="470" font-size="11" fill="#5c5c66" text-anchor="middle" font-weight="400" font-family="Garamond, 'EB Garamond', Georgia, serif" font-style="italic">Each meta-vertex is itself a 4·6·4·1 tetrahedron. The form recurs; the 1 does not.</text>
</svg>