<svg xmlns="http://www.w3.org/2000/svg" viewBox="0 0 700 340" width="700" height="340" role="img" font-family="Inter, 'Source Sans 3', 'Helvetica Neue', Helvetica, system-ui, sans-serif">
<line x1="40" y1="220" x2="660" y2="220" stroke="#7a5a3a" stroke-width="2.4"/>
<line x1="130" y1="49.5" x2="36.5" y2="215" stroke="#2a2a30" stroke-width="1.4" opacity="1.0"/>
<line x1="130" y1="49.5" x2="223.5" y2="215" stroke="#2a2a30" stroke-width="1.4" opacity="1.0"/>
<line x1="36.5" y1="215" x2="223.5" y2="215" stroke="#2a2a30" stroke-width="1.4" opacity="1.0"/>
<line x1="130" y1="49.5" x2="130" y2="139.7" stroke="#5c5c66" stroke-width="0.8" stroke-dasharray="3 3" opacity="0.5"/>
<line x1="36.5" y1="215" x2="130" y2="139.7" stroke="#5c5c66" stroke-width="0.8" stroke-dasharray="3 3" opacity="0.5"/>
<line x1="223.5" y1="215" x2="130" y2="139.7" stroke="#5c5c66" stroke-width="0.8" stroke-dasharray="3 3" opacity="0.5"/>
<circle cx="130" cy="49.5" r="2.2" fill="#2a2a30" opacity="1.0"/>
<circle cx="36.5" cy="215" r="2.2" fill="#2a2a30" opacity="1.0"/>
<circle cx="223.5" cy="215" r="2.2" fill="#2a2a30" opacity="1.0"/>
<circle cx="130" cy="139.7" r="2.2" fill="#2a2a30" opacity="1.0"/>
<line x1="290" y1="103.75" x2="226.25" y2="215" stroke="#2a2a30" stroke-width="1.19" opacity="0.85"/>
<line x1="290" y1="103.75" x2="353.75" y2="215" stroke="#2a2a30" stroke-width="1.19" opacity="0.85"/>
<line x1="226.25" y1="215" x2="353.75" y2="215" stroke="#2a2a30" stroke-width="1.19" opacity="0.85"/>
<line x1="290" y1="103.75" x2="290" y2="165.25" stroke="#5c5c66" stroke-width="0.68" stroke-dasharray="3 3" opacity="0.425"/>
<line x1="226.25" y1="215" x2="290" y2="165.25" stroke="#5c5c66" stroke-width="0.68" stroke-dasharray="3 3" opacity="0.425"/>
<line x1="353.75" y1="215" x2="290" y2="165.25" stroke="#5c5c66" stroke-width="0.68" stroke-dasharray="3 3" opacity="0.425"/>
<circle cx="290" cy="103.75" r="2.2" fill="#2a2a30" opacity="0.85"/>
<circle cx="226.25" cy="215" r="2.2" fill="#2a2a30" opacity="0.85"/>
<circle cx="353.75" cy="215" r="2.2" fill="#2a2a30" opacity="0.85"/>
<circle cx="290" cy="165.25" r="2.2" fill="#2a2a30" opacity="0.85"/>
<line x1="430" y1="142.5" x2="387.5" y2="215" stroke="#2a2a30" stroke-width="0.9799999999999999" opacity="0.7"/>
<line x1="430" y1="142.5" x2="472.5" y2="215" stroke="#2a2a30" stroke-width="0.9799999999999999" opacity="0.7"/>
<line x1="387.5" y1="215" x2="472.5" y2="215" stroke="#2a2a30" stroke-width="0.9799999999999999" opacity="0.7"/>
<line x1="430" y1="142.5" x2="430" y2="183.5" stroke="#5c5c66" stroke-width="0.5599999999999999" stroke-dasharray="3 3" opacity="0.35"/>
<line x1="387.5" y1="215" x2="430" y2="183.5" stroke="#5c5c66" stroke-width="0.5599999999999999" stroke-dasharray="3 3" opacity="0.35"/>
<line x1="472.5" y1="215" x2="430" y2="183.5" stroke="#5c5c66" stroke-width="0.5599999999999999" stroke-dasharray="3 3" opacity="0.35"/>
<circle cx="430" cy="142.5" r="2.2" fill="#2a2a30" opacity="0.7"/>
<circle cx="387.5" cy="215" r="2.2" fill="#2a2a30" opacity="0.7"/>
<circle cx="472.5" cy="215" r="2.2" fill="#2a2a30" opacity="0.7"/>
<circle cx="430" cy="183.5" r="2.2" fill="#2a2a30" opacity="0.7"/>
<line x1="560" y1="170.4" x2="532.8" y2="215" stroke="#2a2a30" stroke-width="0.77" opacity="0.55"/>
<line x1="560" y1="170.4" x2="587.2" y2="215" stroke="#2a2a30" stroke-width="0.77" opacity="0.55"/>
<line x1="532.8" y1="215" x2="587.2" y2="215" stroke="#2a2a30" stroke-width="0.77" opacity="0.55"/>
<line x1="560" y1="170.4" x2="560" y2="196.64000000000001" stroke="#5c5c66" stroke-width="0.44000000000000006" stroke-dasharray="3 3" opacity="0.275"/>
<line x1="532.8" y1="215" x2="560" y2="196.64000000000001" stroke="#5c5c66" stroke-width="0.44000000000000006" stroke-dasharray="3 3" opacity="0.275"/>
<line x1="587.2" y1="215" x2="560" y2="196.64000000000001" stroke="#5c5c66" stroke-width="0.44000000000000006" stroke-dasharray="3 3" opacity="0.275"/>
<circle cx="560" cy="170.4" r="2.2" fill="#2a2a30" opacity="0.55"/>
<circle cx="532.8" cy="215" r="2.2" fill="#2a2a30" opacity="0.55"/>
<circle cx="587.2" cy="215" r="2.2" fill="#2a2a30" opacity="0.55"/>
<circle cx="560" cy="196.64000000000001" r="2.2" fill="#2a2a30" opacity="0.55"/>
<text x="350.0" y="246" font-size="12" fill="#7a5a3a" text-anchor="middle" font-weight="400" font-family="Garamond, 'EB Garamond', Georgia, serif" font-style="italic">somatic ground — the literal 1</text>
<text x="350.0" y="264" font-size="10" fill="#5c5c66" text-anchor="middle" font-weight="400" font-family="Garamond, 'EB Garamond', Georgia, serif" font-style="italic">Form recurs at every scale. The ground does not.</text>
<text x="350.0" y="290" font-size="11" fill="#1a1a1f" text-anchor="middle" font-weight="600" font-family="Garamond, 'EB Garamond', Georgia, serif">All scales rest on the same ground.</text>
</svg>