<svg xmlns="http://www.w3.org/2000/svg" viewBox="0 0 640 380" width="640" height="380" role="img" font-family="Inter, 'Source Sans 3', 'Helvetica Neue', Helvetica, system-ui, sans-serif">
<line x1="40" y1="280" x2="600" y2="280" stroke="#7a5a3a" stroke-width="2"/>
<line x1="140" y1="104.0" x2="46.5" y2="274" stroke="#2a2a30" stroke-width="1.4" opacity="1.0"/>
<line x1="140" y1="104.0" x2="233.5" y2="274" stroke="#2a2a30" stroke-width="1.4" opacity="1.0"/>
<line x1="46.5" y1="274" x2="233.5" y2="274" stroke="#2a2a30" stroke-width="1.4" opacity="1.0"/>
<line x1="140" y1="104.0" x2="140" y2="194.2" stroke="#5c5c66" stroke-width="0.8" stroke-dasharray="3 3" opacity="0.6"/>
<line x1="46.5" y1="274" x2="140" y2="194.2" stroke="#5c5c66" stroke-width="0.8" stroke-dasharray="3 3" opacity="0.6"/>
<line x1="233.5" y1="274" x2="140" y2="194.2" stroke="#5c5c66" stroke-width="0.8" stroke-dasharray="3 3" opacity="0.6"/>
<circle cx="140" cy="104.0" r="2.5" fill="#2a2a30" opacity="1.0"/>
<circle cx="46.5" cy="274" r="2.5" fill="#2a2a30" opacity="1.0"/>
<circle cx="233.5" cy="274" r="2.5" fill="#2a2a30" opacity="1.0"/>
<circle cx="140" cy="194.2" r="2.5" fill="#2a2a30" opacity="1.0"/>
<text x="140" y="302" font-size="11" fill="#1a1a1f" text-anchor="middle" font-weight="600">Meta scale</text>
<text x="140" y="316" font-size="10" fill="#5c5c66" text-anchor="middle" font-weight="500">4·6·4·1</text>
<line x1="320" y1="160.0" x2="256.25" y2="274" stroke="#2a2a30" stroke-width="1.19" opacity="0.85"/>
<line x1="320" y1="160.0" x2="383.75" y2="274" stroke="#2a2a30" stroke-width="1.19" opacity="0.85"/>
<line x1="256.25" y1="274" x2="383.75" y2="274" stroke="#2a2a30" stroke-width="1.19" opacity="0.85"/>
<line x1="320" y1="160.0" x2="320" y2="221.5" stroke="#5c5c66" stroke-width="0.68" stroke-dasharray="3 3" opacity="0.51"/>
<line x1="256.25" y1="274" x2="320" y2="221.5" stroke="#5c5c66" stroke-width="0.68" stroke-dasharray="3 3" opacity="0.51"/>
<line x1="383.75" y1="274" x2="320" y2="221.5" stroke="#5c5c66" stroke-width="0.68" stroke-dasharray="3 3" opacity="0.51"/>
<circle cx="320" cy="160.0" r="2.5" fill="#2a2a30" opacity="0.85"/>
<circle cx="256.25" cy="274" r="2.5" fill="#2a2a30" opacity="0.85"/>
<circle cx="383.75" cy="274" r="2.5" fill="#2a2a30" opacity="0.85"/>
<circle cx="320" cy="221.5" r="2.5" fill="#2a2a30" opacity="0.85"/>
<text x="320" y="302" font-size="11" fill="#1a1a1f" text-anchor="middle" font-weight="600">Substrate scale</text>
<text x="320" y="316" font-size="10" fill="#5c5c66" text-anchor="middle" font-weight="500">4·6·4·1</text>
<line x1="490" y1="200.0" x2="447.5" y2="274" stroke="#2a2a30" stroke-width="0.9799999999999999" opacity="0.7"/>
<line x1="490" y1="200.0" x2="532.5" y2="274" stroke="#2a2a30" stroke-width="0.9799999999999999" opacity="0.7"/>
<line x1="447.5" y1="274" x2="532.5" y2="274" stroke="#2a2a30" stroke-width="0.9799999999999999" opacity="0.7"/>
<line x1="490" y1="200.0" x2="490" y2="241.0" stroke="#5c5c66" stroke-width="0.5599999999999999" stroke-dasharray="3 3" opacity="0.42"/>
<line x1="447.5" y1="274" x2="490" y2="241.0" stroke="#5c5c66" stroke-width="0.5599999999999999" stroke-dasharray="3 3" opacity="0.42"/>
<line x1="532.5" y1="274" x2="490" y2="241.0" stroke="#5c5c66" stroke-width="0.5599999999999999" stroke-dasharray="3 3" opacity="0.42"/>
<circle cx="490" cy="200.0" r="2.5" fill="#2a2a30" opacity="0.7"/>
<circle cx="447.5" cy="274" r="2.5" fill="#2a2a30" opacity="0.7"/>
<circle cx="532.5" cy="274" r="2.5" fill="#2a2a30" opacity="0.7"/>
<circle cx="490" cy="241.0" r="2.5" fill="#2a2a30" opacity="0.7"/>
<text x="490" y="302" font-size="11" fill="#1a1a1f" text-anchor="middle" font-weight="600">Facet scale</text>
<text x="490" y="316" font-size="10" fill="#5c5c66" text-anchor="middle" font-weight="500">4·6·4·1</text>
<text x="320.0" y="345" font-size="12" fill="#7a5a3a" text-anchor="middle" font-weight="400" font-family="Garamond, 'EB Garamond', Georgia, serif" font-style="italic">somatic ground — the literal 1 at every scale</text>
<text x="320.0" y="365" font-size="11" fill="#1a1a1f" text-anchor="middle" font-weight="600" font-family="Garamond, 'EB Garamond', Georgia, serif">Form recurses. Ground does not.</text>
</svg>