<svg xmlns="http://www.w3.org/2000/svg" viewBox="0 0 760 640" width="760" height="640" role="img" font-family="Inter, 'Source Sans 3', 'Helvetica Neue', Helvetica, system-ui, sans-serif">
<line x1="380.0" y1="105" x2="222.5" y2="376.25" stroke="#5c5c66" stroke-width="0.8" opacity="0.4" stroke-linecap="round"/>
<line x1="380.0" y1="105" x2="537.5" y2="376.25" stroke="#5c5c66" stroke-width="0.8" opacity="0.4" stroke-linecap="round"/>
<line x1="222.5" y1="376.25" x2="537.5" y2="376.25" stroke="#5c5c66" stroke-width="0.8" opacity="0.4" stroke-linecap="round"/>
<line x1="380.0" y1="105" x2="380.0" y2="248.5" stroke="#5c5c66" stroke-width="0.6" stroke-dasharray="3 4" opacity="0.3"/>
<line x1="222.5" y1="376.25" x2="380.0" y2="248.5" stroke="#5c5c66" stroke-width="0.6" stroke-dasharray="3 4" opacity="0.3"/>
<line x1="537.5" y1="376.25" x2="380.0" y2="248.5" stroke="#5c5c66" stroke-width="0.6" stroke-dasharray="3 4" opacity="0.3"/>
<circle cx="380.0" cy="105" r="33" fill="#fafaf7" stroke="none"/>
<line x1="380.0" y1="77" x2="354.8" y2="120.4" stroke="#8a7423" stroke-width="0.9" opacity="1.0"/>
<line x1="380.0" y1="77" x2="405.2" y2="120.4" stroke="#8a7423" stroke-width="0.9" opacity="1.0"/>
<line x1="354.8" y1="120.4" x2="405.2" y2="120.4" stroke="#8a7423" stroke-width="0.9" opacity="1.0"/>
<line x1="380.0" y1="77" x2="380.0" y2="99.96" stroke="#8a7423" stroke-width="0.6" stroke-dasharray="2 2" opacity="0.6"/>
<line x1="354.8" y1="120.4" x2="380.0" y2="99.96" stroke="#8a7423" stroke-width="0.6" stroke-dasharray="2 2" opacity="0.6"/>
<line x1="405.2" y1="120.4" x2="380.0" y2="99.96" stroke="#8a7423" stroke-width="0.6" stroke-dasharray="2 2" opacity="0.6"/>
<circle cx="380.0" cy="77" r="2" fill="#8a7423" opacity="1.0"/>
<circle cx="354.8" cy="120.4" r="2" fill="#8a7423" opacity="1.0"/>
<circle cx="405.2" cy="120.4" r="2" fill="#8a7423" opacity="1.0"/>
<circle cx="380.0" cy="99.96" r="2" fill="#8a7423" opacity="1.0"/>
<text x="380.0" y="27" font-size="13" fill="#8a7423" text-anchor="middle" font-weight="600">A · Architecture</text>
<text x="380.0" y="41" font-size="10" fill="#5c5c66" text-anchor="middle" font-weight="500" font-style="italic">Substrate Discipline</text>
<text x="380.0" y="59" font-size="10" fill="#1a1a1f" text-anchor="middle" font-weight="500">Recognition over invention</text>
<text x="380.0" y="75" font-size="9" fill="#8a7423" text-anchor="middle" font-weight="600" letter-spacing="1.5">SELF-RECOGNITION</text>
<circle cx="380.0" cy="248.5" r="33" fill="#fafaf7" stroke="none"/>
<line x1="380.0" y1="220.5" x2="354.8" y2="263.9" stroke="#4a8a3a" stroke-width="0.9" opacity="1.0"/>
<line x1="380.0" y1="220.5" x2="405.2" y2="263.9" stroke="#4a8a3a" stroke-width="0.9" opacity="1.0"/>
<line x1="354.8" y1="263.9" x2="405.2" y2="263.9" stroke="#4a8a3a" stroke-width="0.9" opacity="1.0"/>
<line x1="380.0" y1="220.5" x2="380.0" y2="243.46" stroke="#4a8a3a" stroke-width="0.6" stroke-dasharray="2 2" opacity="0.6"/>
<line x1="354.8" y1="263.9" x2="380.0" y2="243.46" stroke="#4a8a3a" stroke-width="0.6" stroke-dasharray="2 2" opacity="0.6"/>
<line x1="405.2" y1="263.9" x2="380.0" y2="243.46" stroke="#4a8a3a" stroke-width="0.6" stroke-dasharray="2 2" opacity="0.6"/>
<circle cx="380.0" cy="220.5" r="2" fill="#4a8a3a" opacity="1.0"/>
<circle cx="354.8" cy="263.9" r="2" fill="#4a8a3a" opacity="1.0"/>
<circle cx="405.2" cy="263.9" r="2" fill="#4a8a3a" opacity="1.0"/>
<circle cx="380.0" cy="243.46" r="2" fill="#4a8a3a" opacity="1.0"/>
<text x="424.0" y="230.5" font-size="13" fill="#4a8a3a" text-anchor="start" font-weight="600">B · Boundaries</text>
<text x="424.0" y="244.5" font-size="10" fill="#5c5c66" text-anchor="start" font-weight="500" font-style="italic">Outer Membrane</text>
<text x="424.0" y="262.5" font-size="10" fill="#1a1a1f" text-anchor="start" font-weight="500">Limits stated as information</text>
<text x="424.0" y="278.5" font-size="9" fill="#4a8a3a" text-anchor="start" font-weight="600" letter-spacing="1.5">SELF-NAMING</text>
<circle cx="222.5" cy="376.25" r="33" fill="#fafaf7" stroke="none"/>
<line x1="222.5" y1="348.25" x2="197.3" y2="391.65" stroke="#3a6fb0" stroke-width="0.9" opacity="1.0"/>
<line x1="222.5" y1="348.25" x2="247.7" y2="391.65" stroke="#3a6fb0" stroke-width="0.9" opacity="1.0"/>
<line x1="197.3" y1="391.65" x2="247.7" y2="391.65" stroke="#3a6fb0" stroke-width="0.9" opacity="1.0"/>
<line x1="222.5" y1="348.25" x2="222.5" y2="371.21" stroke="#3a6fb0" stroke-width="0.6" stroke-dasharray="2 2" opacity="0.6"/>
<line x1="197.3" y1="391.65" x2="222.5" y2="371.21" stroke="#3a6fb0" stroke-width="0.6" stroke-dasharray="2 2" opacity="0.6"/>
<line x1="247.7" y1="391.65" x2="222.5" y2="371.21" stroke="#3a6fb0" stroke-width="0.6" stroke-dasharray="2 2" opacity="0.6"/>
<circle cx="222.5" cy="348.25" r="2" fill="#3a6fb0" opacity="1.0"/>
<circle cx="197.3" cy="391.65" r="2" fill="#3a6fb0" opacity="1.0"/>
<circle cx="247.7" cy="391.65" r="2" fill="#3a6fb0" opacity="1.0"/>
<circle cx="222.5" cy="371.21" r="2" fill="#3a6fb0" opacity="1.0"/>
<text x="222.5" y="426.25" font-size="13" fill="#3a6fb0" text-anchor="middle" font-weight="600">C · Connection</text>
<text x="222.5" y="440.25" font-size="10" fill="#5c5c66" text-anchor="middle" font-weight="500" font-style="italic">Deployment Clusters</text>
<text x="222.5" y="458.25" font-size="10" fill="#1a1a1f" text-anchor="middle" font-weight="500">Same architecture across substrate domains</text>
<text x="222.5" y="474.25" font-size="9" fill="#3a6fb0" text-anchor="middle" font-weight="600" letter-spacing="1.5">SELF-CARRYING</text>
<circle cx="537.5" cy="376.25" r="33" fill="#fafaf7" stroke="none"/>
<line x1="537.5" y1="348.25" x2="512.3" y2="391.65" stroke="#b06a3a" stroke-width="0.9" opacity="1.0"/>
<line x1="537.5" y1="348.25" x2="562.7" y2="391.65" stroke="#b06a3a" stroke-width="0.9" opacity="1.0"/>
<line x1="512.3" y1="391.65" x2="562.7" y2="391.65" stroke="#b06a3a" stroke-width="0.9" opacity="1.0"/>
<line x1="537.5" y1="348.25" x2="537.5" y2="371.21" stroke="#b06a3a" stroke-width="0.6" stroke-dasharray="2 2" opacity="0.6"/>
<line x1="512.3" y1="391.65" x2="537.5" y2="371.21" stroke="#b06a3a" stroke-width="0.6" stroke-dasharray="2 2" opacity="0.6"/>
<line x1="562.7" y1="391.65" x2="537.5" y2="371.21" stroke="#b06a3a" stroke-width="0.6" stroke-dasharray="2 2" opacity="0.6"/>
<circle cx="537.5" cy="348.25" r="2" fill="#b06a3a" opacity="1.0"/>
<circle cx="512.3" cy="391.65" r="2" fill="#b06a3a" opacity="1.0"/>
<circle cx="562.7" cy="391.65" r="2" fill="#b06a3a" opacity="1.0"/>
<circle cx="537.5" cy="371.21" r="2" fill="#b06a3a" opacity="1.0"/>
<text x="537.5" y="426.25" font-size="13" fill="#b06a3a" text-anchor="middle" font-weight="600">D · Differentiation</text>
<text x="537.5" y="440.25" font-size="10" fill="#5c5c66" text-anchor="middle" font-weight="500" font-style="italic">Canonical Self-Description</text>
<text x="537.5" y="458.25" font-size="10" fill="#1a1a1f" text-anchor="middle" font-weight="500">The substrate as its own reader</text>
<text x="537.5" y="474.25" font-size="9" fill="#b06a3a" text-anchor="middle" font-weight="600" letter-spacing="1.5">SELF-READING</text>
<circle cx="380.0" cy="288.5" r="8" fill="#7a5a3a" stroke="#2a2a30" stroke-width="0.8"/>
<text x="380.0" y="312.5" font-size="11" fill="#7a5a3a" text-anchor="middle" font-weight="500" font-style="italic">meta-1 = somatic ground</text>
<text x="380.0" y="616" font-size="11" fill="#5c5c66" text-anchor="middle" font-weight="400" font-family="Garamond, 'EB Garamond', Georgia, serif" font-style="italic">Each sub-1 is an operation the somatic ground performs at one of the four vertices.</text>
</svg>